<?xml version="1.0" encoding="iso-8859-1"?>
<!-- Uploaded to: SVG Repo, www.svgrepo.com, Generator: SVG Repo Mixer Tools -->
<svg fill="#000000" height="800px" width="800px" version="1.1" id="Layer_1" xmlns="http://www.w3.org/2000/svg" xmlns:xlink="http://www.w3.org/1999/xlink" 
	 viewBox="0 0 512 512" xml:space="preserve">
<g>
	<g>
		<path d="M77.395,232.186c-13.126,0-23.809,10.681-23.814,23.814c0,13.131,10.682,23.814,23.812,23.814h0.002
			c13.131,0,23.814-10.683,23.814-23.814C101.209,242.869,90.526,232.186,77.395,232.186z"/>
	</g>
</g>
<g>
	<g>
		<path d="M470.326,95.256H41.674C18.695,95.256,0,113.951,0,136.93v238.14c0,22.979,18.695,41.674,41.674,41.674h428.651
			c22.979,0,41.674-18.695,41.674-41.674V136.93C512,113.951,493.305,95.256,470.326,95.256z M119.07,381.023H41.674
			c-3.283,0-5.953-2.671-5.953-5.953V136.93c0-3.283,2.671-5.953,5.953-5.953h77.395V381.023z M404.837,381.023H154.791V130.977
			h250.047V381.023z M476.279,375.07c0,3.283-2.671,5.953-5.953,5.953h-29.767V130.977h29.767c3.283,0,5.953,2.671,5.953,5.953
			V375.07z"/>
	</g>
</g>
<g>
	<g>
		<polygon points="244.093,184.558 244.093,327.442 339.349,256 		"/>
	</g>
</g>
</svg>